#!OML:ASF H:\MichaelJackson\Top Level 1\Subject 1\Session 1\male.ASF
:FULLY-SPECIFIED
:DEGREES
156
root 5.08903 16.9709 -18.0588 6.70981 40.3943 -0.601699
lowerback -1.59305 -7.1638 -2.16496
upperback -2.30142 -9.53666 -0.62032
thorax -1.23881 -4.73762 0.490109
lowerneck -8.27721 -6.68273 -4.85821
upperneck -1.97982 -8.49363 5.0431
head 1.24331 -4.12996 2.10133
rclavicle 6.51144e-014 1.03368e-014
rhumerus -58.1313 -4.6057 -68.6707
rradius 103.522
rwrist 4.69417
rhand -34.6119 -37.9794
rfingers 7.12502
rthumb -7.77018 -67.8166
lclavicle 6.51144e-014 1.03368e-014
lhumerus -49.0889 -43.6868 113.369
lradius 65.7164
lwrist 10.2484
lhand 18.9689 19.6262
lfingers 7.12502
lthumb 43.5733 43.6664
rfemur -34.7722 -11.5029 15.8124
rtibia 67.0652
rfoot -0.970512 -26.5289
rtoes 54.2835
lfemur -23.1811 27.4055 -25.9457
ltibia 36.9746
lfoot -21.7283 12.1956
ltoes 43.3581
157
root 5.10056 16.958 -18.0613 6.9969 39.2463 0.155907
lowerback -1.60775 -6.69735 -2.23781
upperback -2.25172 -8.91487 -0.898426
thorax -1.22623 -4.42794 0.253864
lowerneck -8.22732 -6.73158 -4.78867
upperneck -2.07652 -8.56268 4.97456
head 1.19914 -4.16651 2.06645
rclavicle -4.61926e-014 -5.56597e-015
rhumerus -57.6319 -3.29315 -69.1016
rradius 104.729
rwrist 4.20639
rhand -34.2315 -37.9508
rfingers 7.12502
rthumb -7.40306 -67.8012
lclavicle -4.61926e-014 -5.56597e-015
lhumerus -49.4044 -42.9573 113.507
lradius 65.4316
lwrist 10.3613
lhand 19.0053 20.0542
lfingers 7.12502
lthumb 43.6073 44.082
rfemur -33.1987 -9.06497 14.4135
rtibia 65.0304
rfoot -1.61112 -25.3589
rtoes 53.7154
lfemur -22.9157 26.254 -25.8047
ltibia 37.9568
lfoot -21.6328 12.097
ltoes 42.9509
158
root 5.10627 16.9466 -18.0642 7.19845 37.9449 0.83728
lowerback -1.55875 -6.19197 -2.34024
upperback -2.19887 -8.24309 -1.18066
thorax -1.23872 -4.09263 0.0363718
lowerneck -8.16413 -6.76618 -4.66182
upperneck -2.1158 -8.62088 4.92458
head 1.16883 -4.19789 2.02793
rclavicle 2.2003e-014 -6.36111e-015
rhumerus -57.0532 -1.95749 -69.5141
rradius 105.952
rwrist 3.45083
rhand -33.3461 -37.3621
rfingers 7.12502
rthumb -6.5483 -67.2408
lclavicle 2.2003e-014 -6.36111e-015
lhumerus -49.6586 -42.1857 113.542
lradius 65.0758
lwrist 10.5552
lhand 19.0649 20.6315
lfingers 7.12502
lthumb 43.663 44.6389
rfemur -31.84 -6.5671 13.1241
rtibia 63.253
rfoot -2.14385 -23.9582
rtoes 52.6725
lfemur -22.6343 25.0536 -25.4348
ltibia 39.0604
lfoot -21.1096 11.5742
ltoes 41.7088
159
root 5.10535 16.919 -18.0673 7.37114 36.5929 1.47184
lowerback -1.50365 -5.68613 -2.46553
upperback -2.14951 -7.5709 -1.47731
thorax -1.25322 -3.75684 -0.184341
lowerneck -8.08195 -6.7907 -4.48057
upperneck -2.0929 -8.67385 4.9039
head 1.15392 -4.22679 1.98955
rclavicle -1.4561e-014 -2.3059e-014
rhumerus -56.3975 -0.625213 -69.9018
rradius 107.164
rwrist 2.55249
rhand -31.9306 -36.2355
rfingers 7.12502
rthumb -5.18173 -66.1521
lclavicle -1.4561e-014 -2.3059e-014
lhumerus -49.8999 -41.4393 113.505
lradius 64.6697
lwrist 10.7746
lhand 19.2031 21.2639
lfingers 7.12502
lthumb 43.792 45.2239
rfemur -30.7621 -4.21434 11.9216
rtibia 61.7901
rfoot -2.56991 -22.4058
rtoes 50.9436
lfemur -22.41 23.801 -24.879
ltibia 40.2376
lfoot -20.0201 10.6002
ltoes 39.2796
160
root 5.10366 16.9104 -18.0689 7.56311 35.2819 2.09077
lowerback -1.51058 -5.20923 -2.61581
upperback -2.09842 -6.93438 -1.79355
thorax -1.22667 -3.43904 -0.419925
lowerneck -7.97278 -6.81425 -4.25845
upperneck -2.02261 -8.73218 4.91539
head 1.14955 -4.25843 1.95455
rclavicle -5.95671e-014 2.38542e-015
rhumerus -55.6745 0.684966 -70.2541
rradius 108.339
rwrist 1.63817
rhand -30.0017 -34.681
rfingers 7.12502
rthumb -3.3191 -64.6349
lclavicle -5.95671e-014 2.38542e-015
lhumerus -50.1458 -40.7961 113.432
lradius 64.216
lwrist 10.9851
lhand 19.5601 21.9478
lfingers 7.12502
lthumb 44.125 45.7839
rfemur -29.7957 -2.16688 10.7761
rtibia 60.4467
rfoot -2.88534 -20.7934
rtoes 48.2103
lfemur -22.1178 22.3472 -24.1694
ltibia 41.2595
lfoot -18.4951 9.08363
ltoes 35.8149
161
root 5.10182 16.9044 -18.0685 7.80785 34.0858 2.7185
lowerback -1.61341 -4.79913 -2.74479
upperback -2.05284 -6.38243 -2.14367
thorax -1.15424 -3.16445 -0.711315
lowerneck -7.84425 -6.83074 -4.02972
upperneck -1.90374 -8.78449 4.969
head 1.15924 -4.28654 1.93228
rclavicle 3.74709e-014 1.43125e-014
rhumerus -54.9084 2.02229 -70.6026
rradius 109.452
rwrist 0.828233
rhand -27.6452 -32.8374
rfingers 7.12502
rthumb -1.04327 -62.8146
lclavicle 3.74709e-014 1.43125e-014
lhumerus -50.4236 -40.2729 113.34
lradius 63.6683
lwrist 11.0629
lhand 20.1516 22.5518
lfingers 7.12502
lthumb 44.6763 46.1778
rfemur -28.9514 -0.544994 9.64692
rtibia 59.2076
rfoot -3.10947 -19.1706
rtoes 44.1457
lfemur -21.764 20.6094 -23.3464
ltibia 42.0109
lfoot -16.7471 6.92343
ltoes 31.5437
162
root 5.10208 16.901 -18.0653 8.11788 33.0423 3.37284
lowerback -1.84163 -4.45921 -2.84901
upperback -2.00503 -5.91686 -2.52161
thorax -1.01047 -2.93412 -1.05563
lowerneck -7.69898 -6.85144 -3.81454
upperneck -1.75407 -8.84283 5.03591
head 1.17761 -4.31733 1.9165
rclavicle 8.57259e-016 1.43125e-014
rhumerus -54.1385 3.42018 -70.9224
rradius 110.505
rwrist 0.150506
rhand -25.0089 -30.8556
rfingers 7.12502
rthumb 1.50297 -60.83
lclavicle 8.57259e-016 1.43125e-014
lhumerus -50.7351 -39.9111 113.275
lradius 63.0121
lwrist 11.045
lhand 21.0249 22.9871
lfingers 7.12502
lthumb 45.4887 46.2915
rfemur -28.1376 0.606656 8.50119
rtibia 57.9299
rfoot -3.22382 -17.5457
rtoes 38.0024
lfemur -21.2572 18.5084 -22.4455
ltibia 42.2768
lfoot -15.0517 4.06962
ltoes 27.4367
163
root 5.10603 16.9004 -18.0592 8.49326 32.1569 4.04982
lowerback -2.20165 -4.18125 -2.91678
upperback -1.95608 -5.52542 -2.91182
thorax -0.792298 -2.74175 -1.44225
lowerneck -7.53826 -6.88182 -3.6279
upperneck -1.59389 -8.91173 5.0774
head 1.19708 -4.35362 1.89741
rclavicle 4.70126e-014 3.18055e-014
rhumerus -53.4075 4.9268 -71.1719
rradius 111.522
rwrist -0.451283
rhand -22.2423 -28.8541
rfingers 7.12502
rthumb 4.17482 -58.7929
lclavicle 4.70126e-014 3.18055e-014
lhumerus -51.083 -39.7096 113.285
lradius 62.2296
lwrist 10.953
lhand 22.2094 23.2142
lfingers 7.12502
lthumb 46.5875 46.0601
rfemur -27.314 1.33796 7.3257
rtibia 56.5707
rfoot -3.36543 -15.9586
rtoes 29.3565
lfemur -20.5899 16.0034 -21.5004
ltibia 42.0164
lfoot -13.65 0.561172
ltoes 24.5247
164
root 5.11445 16.9034 -18.0497 8.9301 31.4117 4.72943
lowerback -2.67111 -3.96371 -2.9183
upperback -1.92745 -5.20823 -3.29808
thorax -0.535725 -2.58701 -1.86759
lowerneck -7.39123 -6.91269 -3.48808
upperneck -1.39515 -8.97695 5.06037
head 1.23014 -4.3882 1.8668
rclavicle 3.64024e-015 -1.11319e-014
rhumerus -52.7535 6.64141 -71.3292
rradius 112.545
rwrist -1.09214
rhand -19.4598 -26.9519
rfingers 7.12502
rthumb 6.86131 -56.8207
lclavicle 3.64024e-015 -1.11319e-014
lhumerus -51.4847 -39.5994 113.388
lradius 61.3295
lwrist 10.858
lhand 23.6987 23.3585
lfingers 7.12502
lthumb 47.9638 45.5881
rfemur -26.4536 1.75057 6.13055
rtibia 55.0769
rfoot -3.6774 -14.3632
rtoes 18.6433
lfemur -19.7843 13.1265 -20.5487
ltibia 41.1859
lfoot -12.6078 -3.45136
ltoes 23.1593
165
root 5.12648 16.9088 -18.0367 9.40092 30.7555 5.36043
lowerback -3.23398 -3.78839 -2.86329
upperback -1.9245 -4.94287 -3.63219
thorax -0.25021 -2.45797 -2.27535
lowerneck -7.27847 -6.93691 -3.41152
upperneck -1.15662 -9.02634 4.94952
head 1.27906 -4.41531 1.81602
rclavicle 1.84249e-014 -1.82882e-014
rhumerus -52.1799 8.63127 -71.3135
rradius 113.632
rwrist -1.87131
rhand -16.719 -25.235
rfingers 7.12502
rthumb 9.50649 -55.0006
lclavicle 1.84249e-014 -1.82882e-014
lhumerus -51.9337 -39.5177 113.623
lradius 60.3479
lwrist 10.8373
lhand 25.2048 23.243
lfingers 7.12502
lthumb 49.3491 44.8009
rfemur -25.567 2.00195 4.96561
rtibia 53.4445
rfoot -4.27365 -12.8047
rtoes 7.21138
lfemur -18.851 9.96499 -19.5781
ltibia 39.8119
lfoot -11.761 -7.80438
ltoes 24.886
166
root 5.14058 16.9138 -18.0212 9.88925 30.1412 5.89122
lowerback -3.84988 -3.64457 -2.73722
upperback -1.97232 -4.72074 -3.88827
thorax 0.0160147 -2.35002 -2.64305
lowerneck -7.21712 -6.94107 -3.38726
upperneck -0.861843 -9.04237 4.73373
head 1.35029 -4.42638 1.73964
rclavicle 1.06747e-013 1.43125e-014
rhumerus -51.6862 10.9264 -71.0622
rradius 114.826
rwrist -2.84461
rhand -14.002 -23.6979
rfingers 7.12502
rthumb 12.1272 -53.3264
lclavicle 1.06747e-013 1.43125e-014
lhumerus -52.4592 -39.3851 114
lradius 59.376
lwrist 11.0057
lhand 26.6383 23.2128
lfingers 7.12502
lthumb 50.6609 44.0815
rfemur -24.6965 2.23028 3.88596
rtibia 51.711
rfoot -5.15382 -11.3264
rtoes -2.92302
lfemur -17.8664 6.64299 -18.5803
ltibia 37.9954
lfoot -10.7833 -12.2625
ltoes 29.3262
167
root 5.15406 16.916 -18.0039 10.3839 29.5395 6.27679
lowerback -4.49907 -3.52795 -2.56324
upperback -2.07684 -4.53923 -4.03445
thorax 0.249161 -2.26164 -2.92384
lowerneck -7.2251 -6.91697 -3.39711
upperneck -0.512621 -9.01401 4.41554
head 1.44539 -4.4162 1.63546
rclavicle 1.27496e-013 0
rhumerus -51.2214 13.5087 -70.4915
rradius 116.149
rwrist -3.95562
rhand -11.1023 -22.3251
rfingers 7.12502
rthumb 14.9219 -51.7676
lclavicle 1.27496e-013 0
lhumerus -53.0727 -39.1646 114.532
lradius 58.4946
lwrist 11.411
lhand 27.5966 23.1945
lfingers 7.12502
lthumb 51.5338 43.573
rfemur -23.9078 2.54511 2.95015
rtibia 49.9475
rfoot -6.24378 -9.98155
rtoes -10.6854
lfemur -16.9113 3.29147 -17.5307
ltibia 35.8797
lfoot -9.41607 -16.5491
ltoes 35.423
168
root 5.1642 16.9133 -17.9861 10.8652 28.933 6.48649
lowerback -5.12639 -3.45313 -2.33797
upperback -2.24694 -4.42339 -4.06495
thorax 0.407174 -2.20572 -3.11113
lowerneck -7.32472 -6.84416 -3.43014
upperneck -0.103108 -8.91425 4.04162
head 1.5719 -4.37086 1.51707
rclavicle 1.9922e-014 4.45278e-014
rhumerus -50.7147 16.3434 -69.5628
rradius 117.589
rwrist -5.05809
rhand -7.8722 -21.0135
rfingers 7.12502
rthumb 18.0318 -50.1976
lclavicle 1.9922e-014 4.45278e-014
lhumerus -53.7787 -38.8044 115.176
lradius 57.7901
lwrist 12.0557
lhand 27.8849 23.3189
lfingers 7.12502
lthumb 51.7957 43.5451
rfemur -23.254 2.99282 2.2125
rtibia 48.2286
rfoot -7.48504 -8.84881
rtoes -15.9381
lfemur -16.0611 0.0696986 -16.4088
ltibia 33.6398
lfoot -7.67962 -20.3883
ltoes 41.3733
